# xmcd
#
# Track frame offsets: 
#        150
#        20342
#        39517
#        54560
#        71575
#        95062
#        116322
#        132275
#        147055
#        164450
#        188867
#        207057
#        226367
#
# Disc length: 3231 seconds
#
# Revision: 16
# Processed by: cddbd v1.5.2PL0 Copyright (c) Steve Scherf et al.
# Submitted via: ExactAudioCopy v1.0b3
#
DISCID=b00c9d0d
DTITLE=Luz Casal - Best of
DYEAR=1999
DGENRE=Latin
TTITLE0=Piensa en mi
TTITLE1=No me importa nada
TTITLE2=Un año de amor
TTITLE3=Lo eres todo
TTITLE4=Besare el suelo
TTITLE5=Es por ti
TTITLE6=Entre mis recuerdos
TTITLE7=Eres tu
TTITLE8=Es mejor que te vayas
TTITLE9=Negra sombra
TTITLE10=Un dia marron
TTITLE11=Tu ne l'emporteras pas
TTITLE12=Entre mes souvenirs
EXTD=YEAR: 1999
EXTT0=
EXTT1=
EXTT2=
EXTT3=
EXTT4=
EXTT5=
EXTT6=
EXTT7=
EXTT8=
EXTT9=
EXTT10=
EXTT11=
EXTT12=
PLAYORDER=
